HIERARCHY
ROOT Hips
{
  OFFSET 0 0 0
  CHANNELS 6 Xposition Yposition Zposition Zrotation Xrotation Yrotation
  JOINT LeftUpLeg
  {
    OFFSET 4.06525 -3.90732 0.41711
    CHANNELS 3 Zrotation Xrotation Yrotation
    JOINT LeftLeg
    {
      OFFSET 0.00023 -18.4821 0.00367
      CHANNELS 3 Zrotation Xrotation Yrotation
      JOINT LeftFoot
      {
        OFFSET -0.00172 -15.2898 -0.02629
        CHANNELS 3 Zrotation Xrotation Yrotation
        JOINT LeftToeBase
        {
          OFFSET 0.36743 -3.19131 5.54287
          CHANNELS 3 Zrotation Xrotation Yrotation
          JOINT LeftToeBase2
          {
            OFFSET 0.08751 0.04849 1.36758
            CHANNELS 3 Zrotation Xrotation Yrotation
            JOINT LeftToeBase3
            {
              OFFSET 0.07484 0.06785 1.16707
            }
          }
        }
      }
    }
  }
  JOINT RightUpLeg
  {
    OFFSET -4.06526 -3.90731 0.41712
    CHANNELS 3 Zrotation Xrotation Yrotation
    JOINT RightLeg
    {
      OFFSET -0.00029 -18.4821 0.0044
      CHANNELS 3 Zrotation Xrotation Yrotation
      JOINT RightFoot
      {
        OFFSET 0.0016 -15.2898 -0.02569
        CHANNELS 3 Zrotation Xrotation Yrotation
        JOINT RightToeBase
        {
          OFFSET -0.3542 -3.19109 5.54386
          CHANNELS 3 Zrotation Xrotation Yrotation
          JOINT RightToeBase2
          {
            OFFSET -0.08424 0.04854 1.36778
            CHANNELS 3 Zrotation Xrotation Yrotation
            JOINT RightToeBase3
            {
              OFFSET -0.07205 0.0679 1.16725
            }
          }
        }
      }
    }
  }
  JOINT Spine
  {
    OFFSET 1e-005 4.46517 -0.10224
    CHANNELS 3 Zrotation Xrotation Yrotation
    JOINT Spine1
    {
      OFFSET 1e-005 4.46212 -0.1824
      CHANNELS 3 Zrotation Xrotation Yrotation
      JOINT Spine2
      {
        OFFSET 0 4.37937 -0.881
        CHANNELS 3 Zrotation Xrotation Yrotation
        JOINT Spine3
        {
          OFFSET 1e-005 4.68286 0.21414
          CHANNELS 3 Zrotation Xrotation Yrotation
          JOINT Neck
          {
            OFFSET 0 1.76964 0.82454
            CHANNELS 3 Zrotation Xrotation Yrotation
            JOINT Head
            {
              OFFSET 0 1.6961 0.93145
              CHANNELS 3 Zrotation Xrotation Yrotation
              JOINT Head_End
              {
                OFFSET 1e-005 7.8375 1.52603
              }
            }
          }
          JOINT LeftShoulder
          {
            OFFSET 1.19381 -0.75881 -0.02768
            CHANNELS 3 Zrotation Xrotation Yrotation
            JOINT LeftArm
            {
              OFFSET 5.18779 -2e-005 1e-005
              CHANNELS 3 Zrotation Xrotation Yrotation
              JOINT LeftForeArm
              {
                OFFSET 12.7364 -4e-005 2e-005
                CHANNELS 3 Zrotation Xrotation Yrotation
                JOINT LeftHand
                {
                  OFFSET 9.21452 -2e-005 1e-005
                  CHANNELS 3 Zrotation Xrotation Yrotation
                }
              }
            }
          }
          JOINT RightShoulder
          {
            OFFSET -1.19381 -0.75881 -0.02767
            CHANNELS 3 Zrotation Xrotation Yrotation
            JOINT RightArm
            {
              OFFSET -5.18779 1e-005 -1e-005
              CHANNELS 3 Zrotation Xrotation Yrotation
              JOINT RightForeArm
              {
                OFFSET -12.7364 3e-005 -2e-005
                CHANNELS 3 Zrotation Xrotation Yrotation
                JOINT RightHand
                {
                  OFFSET -9.21452 2e-005 -1e-005
                  CHANNELS 3 Zrotation Xrotation Yrotation
                }
              }
            }
          }
        }
      }
    }
  }
}
MOTION
Frames: 14
Frame Time: 	0.0166667
1.45532e-008 40.0045 6.93931e-007 3.20526 6.34197 -0.354426 -1.24699 -32.8006 2.16907  -9.94949e-005 31.4959 -0.0679847  0.218315 -4.3847 -3.33297  3.76697e-014 -1.29381e-011 -1.02101e-010  -0 0 -0   -8.60652 12.0421 -1.28561  0.000378067 33.1232 0.16224  2.93407 -1.92123 4.34135  -6.99662e-012 -1.7531e-011 -9.24301e-011  -0 0 -0   -2.49368 2.16678 2.13434  -1.25038 2.89291 1.11443  -1.18873 3.40564 0.922418  -1.4841 6.79691 1.86516  -5.41123 -11.8819 5.3478  4.32578 -25.6945 5.64782   -8.40038 3.45162 -9.05047  -66.5503 14.5426 -0.166142  1.08836e-011 1.74625e-011 -14.4001  -10.8685 7.38731 8.16603  1.12991 2.16128 9.04904  65.6883 26.0422 13.1211  6.63122e-011 -1.17481e-010 22.6436  -7.35128 -16.405 -2.98656 
0.190535 40.177 0.844902 3.25133 6.0275 -0.393698 -1.69236 -30.9801 1.96112  -0.000164433 31.6023 -0.111985  0.496939 -5.97313 -3.09885  3.76697e-014 -1.29381e-011 -1.02101e-010  -0 0 -0   -9.19311 9.15666 -1.39538  0.000531827 39.2268 0.211459  2.94712 2.88444 4.16777  -6.99662e-012 -1.7531e-011 -9.24301e-011  -0 0 -0   -2.42964 2.21307 2.09675  -1.29861 2.89518 1.10732  -1.24068 3.37177 0.906307  -1.61774 6.74422 1.83922  -5.34861 -11.4743 5.43791  4.32033 -25.3432 5.71313   -8.24405 3.48791 -9.32807  -66.1844 14.5139 -0.550357  1.09011e-011 1.74581e-011 -14.4574  -10.862 7.43282 8.24312  1.1642 2.17788 9.0571  66.2791 26.2447 12.1586  6.38771e-011 -1.18467e-010 21.461  -7.43143 -17.5638 -4.28825 
0.378474 40.3552 1.68123 3.25583 5.69014 -0.435232 -2.00651 -28.985 2.05591  -0.000274193 31.3733 -0.181039  0.796956 -7.48956 -3.07153  3.76697e-014 -1.29381e-011 -1.02101e-010  -0 0 -0   -9.65993 6.12753 -1.49804  0.000667594 45.1774 0.247467  3.19281 7.3767 3.45858  -6.99662e-012 -1.7531e-011 -9.24301e-011  -0 0 -0   -2.32545 2.24761 2.01993  -1.32549 2.8903 1.08836  -1.2741 3.34003 0.878994  -1.73199 6.68548 1.796  -5.29201 -11.0029 5.56825  4.30912 -24.9749 5.82777   -8.0419 3.49165 -9.56444  -65.8136 14.4802 -0.912862  1.09835e-011 1.74366e-011 -14.728  -10.8766 7.38227 8.28446  1.22265 2.20064 9.08536  66.7839 26.4416 11.189  6.16544e-011 -1.19317e-010 20.3899  -6.77828 -17.7719 -5.13325 
0.559052 40.5327 2.50489 3.26915 5.38176 -0.501507 -2.23818 -26.9022 2.49755  -0.000382094 30.8177 -0.251755  1.13122 -8.78167 -3.31151  3.76697e-014 -1.29381e-011 -1.02101e-010  -0 0 -0   -10.038 3.07997 -1.56864  0.000780489 50.6973 0.274465  3.95617 10.6859 1.97827  -6.99662e-012 -1.7531e-011 -9.24301e-011  -0 0 -0   -2.24649 2.23087 1.9243  -1.33308 2.87106 1.0496  -1.29387 3.33081 0.831976  -1.84304 6.63199 1.73173  -5.21653 -10.4706 5.75026  4.27978 -24.6202 5.99507   -7.82609 3.45685 -9.75878  -65.4153 14.4528 -1.24481  1.11234e-011 1.73992e-011 -15.1882  -10.6365 7.18431 8.24115  1.35901 2.23214 9.12119  67.1476 26.6263 10.2794  5.967e-011 -1.20036e-010 19.4399  -5.31819 -16.91 -5.40187 
0.731163 40.7043 3.3178 3.23709 5.06127 -0.536658 -2.37064 -24.7245 3.16771  -0.000451521 30.0289 -0.305964  1.45528 -9.93138 -3.80101  3.76697e-014 -1.29381e-011 -1.02101e-010  -0 0 -0   -10.2494 0.0996554 -1.69564  0.000883071 55.7453 0.295648  4.99881 12.6987 0.0176525  -6.99662e-012 -1.7531e-011 -9.24301e-011  -0 0 -0   -2.15922 2.21857 1.79126  -1.32665 2.8566 0.985462  -1.29826 3.33155 0.762313  -1.93498 6.59326 1.62476  -5.11296 -9.93233 5.97564  4.2156 -24.2413 6.20513   -7.61137 3.40723 -9.89409  -64.9779 14.4357 -1.57427  1.13162e-011 1.73457e-011 -15.8241  -10.225 6.94398 8.10069  1.55304 2.27201 9.14946  67.4085 26.6892 9.41486  5.80193e-011 -1.20606e-010 18.6538  -3.3823 -15.295 -5.32764 
0.890938 40.8591 4.11376 3.1155 4.6918 -0.481721 -2.36297 -22.4849 4.01943  -0.000467331 29.1277 -0.332165  1.74939 -10.9707 -4.57351  3.76697e-014 -1.29381e-011 -1.02101e-010  -0 0 -0   -10.2385 -2.70735 -1.96043  0.000952616 60.2911 0.301273  5.94611 12.7698 -2.24759  -6.99662e-012 -1.7531e-011 -9.24301e-011  -0 0 -0   -2.04164 2.2581 1.58583  -1.31257 2.86518 0.885703  -1.28755 3.33294 0.66283  -1.99858 6.587 1.44582  -4.96465 -9.45093 6.24776  4.09124 -23.7961 6.45744   -7.42897 3.36676 -9.93873  -64.4797 14.4376 -1.92223  1.15599e-011 1.72748e-011 -16.6306  -9.60291 6.77485 7.80915  1.81152 2.32316 9.14688  67.5774 26.4781 8.61061  5.68695e-011 -1.20988e-010 18.1085  -1.21497 -13.046 -5.09387 
1.03702 40.9978 4.89601 2.93901 4.30741 -0.324547 -2.29327 -20.2227 4.92913  -0.000442259 28.1331 -0.334788  1.9846 -11.9103 -5.53595  3.76697e-014 -1.29381e-011 -1.02101e-010  -0 0 -0   -10.062 -5.38023 -2.35841  0.000978135 64.2704 0.290252  6.65084 11.4858 -4.49286  -6.99662e-012 -1.7531e-011 -9.24301e-011  -0 0 -0   -1.93452 2.32719 1.33308  -1.29164 2.88781 0.75624  -1.26309 3.34101 0.537489  -2.03216 6.59515 1.21338  -4.76492 -9.00505 6.54311  3.91893 -23.3278 6.7271   -7.25976 3.32835 -9.93599  -63.9283 14.4562 -2.30102  1.18385e-011 1.71891e-011 -17.5572  -8.86164 6.6 7.4419  2.10743 2.37845 9.1253  67.6821 26.1141 7.84328  5.6031e-011 -1.21259e-010 17.7118  0.997065 -10.6371 -4.73155 
1.16826 41.118 5.66591 2.71916 3.92825 -0.0350445 -2.16849 -17.9846 5.81273  -0.000393408 27.0989 -0.316877  2.1415 -12.7689 -6.63522  3.76697e-014 -1.29381e-011 -1.02101e-010  -0 0 -0   -9.73774 -7.92713 -2.92661  0.00093913 67.6429 0.262477  6.91968 9.08265 -6.36838  -6.99662e-012 -1.7531e-011 -9.24301e-011  -0 0 -0   -1.86037 2.41713 1.03961  -1.26373 2.92087 0.597218  -1.22246 3.35955 0.385976  -2.02449 6.606 0.933415  -4.51016 -8.59665 6.84946  3.70275 -22.8612 6.9931   -7.1127 3.2923 -9.90629  -63.3152 14.4968 -2.73265  1.21361e-011 1.70921e-011 -18.5517  -8.06926 6.36465 7.05705  2.41246 2.43331 9.10323  67.7415 25.661 7.09734  5.53819e-011 -1.21464e-010 17.4054  3.04971 -8.54961 -4.34513 
1.28386 41.2211 6.42706 2.46793 3.55725 0.405185 -2.03219 -15.7698 6.55417  -0.000334738 26.0177 -0.284998  2.21542 -13.549 -7.77773  3.76697e-014 -1.29381e-011 -1.02101e-010  -0 0 -0   -9.32281 -10.3431 -3.64209  0.000827745 70.3141 0.223125  6.82417 6.08493 -7.86753  -6.99662e-012 -1.7531e-011 -9.24301e-011  -0 0 -0   -1.81575 2.52768 0.716405  -1.23227 2.96199 0.415865  -1.17172 3.38131 0.214139  -1.99012 6.61325 0.614348  -4.17074 -8.21861 7.13693  3.44763 -22.4099 7.24538   -6.93523 3.26037 -9.88654  -62.6675 14.5445 -3.20908  1.24521e-011 1.69828e-011 -19.6146  -7.25634 6.11594 6.65249  2.73735 2.48291 9.03733  67.7928 25.1386 6.36446  5.48718e-011 -1.21623e-010 17.1649  4.75067 -6.88142 -3.89752 
1.38203 41.3069 7.18257 2.18877 3.20185 1.06478 -1.89215 -13.5987 6.97171  -0.000275583 24.91 -0.245101  2.19665 -14.264 -8.85279  3.76697e-014 -1.29381e-011 -1.02101e-010  -0 0 -0   -8.84792 -12.6092 -4.55196  0.000650697 72.1703 0.178823  6.52682 3.00484 -8.86394  -6.99662e-012 -1.7531e-011 -9.24301e-011  -0 0 -0   -1.80509 2.65958 0.365384  -1.19768 3.00935 0.212675  -1.11105 3.40143 0.0214871  -1.92892 6.60865 0.254214  -3.6967 -7.8739 7.36898  3.13943 -21.9813 7.46684   -6.67434 3.23931 -9.92578  -62.0072 14.5981 -3.73924  1.27826e-011 1.68614e-011 -20.7336  -6.46531 5.8644 6.22924  3.07815 2.51906 8.88946  67.8842 24.5932 5.63446  5.43863e-011 -1.21772e-010 16.9364  5.77785 -5.92545 -3.39067 
1.46724 41.3772 7.93617 1.91685 2.86909 1.82466 -1.74997 -11.4452 7.19795  -0.000222484 23.7356 -0.201775  2.10921 -14.9043 -9.85173  3.76697e-014 -1.29381e-011 -1.02101e-010  -0 0 -0   -8.36511 -14.7572 -5.49484  0.000423285 73.2047 0.132991  6.11237 0.063232 -9.45778  -6.99662e-012 -1.7531e-011 -9.24301e-011  -0 0 -0   -1.81891 2.80115 0.0177149  -1.16742 3.05769 0.00804134  -1.05442 3.4166 -0.173126  -1.87298 6.58643 -0.109584  -3.14207 -7.53432 7.55375  2.84358 -21.6189 7.6589   -6.3408 3.21465 -10.008  -61.3409 14.6218 -4.29418  1.31232e-011 1.67285e-011 -21.8955  -5.72861 5.66508 5.8359  3.45095 2.54733 8.6624  68.002 24.0098 4.89745  5.39911e-011 -1.21891e-010 16.7505  6.31654 -5.57773 -2.81199 
1.54399 41.436 8.6923 1.67867 2.55709 2.58606 -1.62663 -9.26978 7.29005  -0.000176619 22.4408 -0.158349  1.97113 -15.4513 -10.7227  3.76697e-014 -1.29381e-011 -1.02101e-010  -0 0 -0   -7.90062 -16.8111 -6.32661  0.000187206 73.3473 0.090062  5.71741 -2.29516 -9.62472  -6.99662e-012 -1.7531e-011 -9.24301e-011  -0 0 -0   -1.84346 2.95148 -0.289391  -1.1502 3.10428 -0.175435  -1.01862 3.42224 -0.349199  -1.86334 6.53336 -0.436473  -2.53513 -7.15479 7.6814  2.63292 -21.3853 7.8137   -5.91378 3.17408 -10.1508  -60.6818 14.5832 -4.83741  1.34699e-011 1.65849e-011 -23.0878  -5.08543 5.57277 5.53374  3.87976 2.57019 8.32239  68.1494 23.3972 4.14329  5.37094e-011 -1.21976e-010 16.6181  6.39409 -5.90431 -2.12013 
1.61207 41.4787 9.4514 1.474 2.30159 3.34856 -1.51298 -7.11805 7.26705  -0.000135278 21.0482 -0.115047  1.79428 -15.9273 -11.4824  3.76697e-014 -1.29381e-011 -1.02101e-010  -0 0 -0   -7.44455 -18.771 -7.01955  -1.51678e-005 72.6401 0.0512318  5.38526 -4.25835 -9.52346  -6.99662e-012 -1.7531e-011 -9.24301e-011  -0 0 -0   -1.89004 3.08285 -0.565702  -1.14282 3.14212 -0.343861  -0.995087 3.41998 -0.511971  -1.87288 6.46673 -0.737405  -1.90463 -6.78905 7.76937  2.47354 -21.2304 7.94211   -5.43529 3.11787 -10.3022  -60.0323 14.4712 -5.4004  1.38182e-011 1.64321e-011 -24.2968  -4.55798 5.59869 5.28573  4.33673 2.58858 7.94089  68.3239 22.7295 3.36259  5.35542e-011 -1.22022e-010 16.5452  6.16221 -6.68814 -1.40325 
1.67329 41.5012 10.2154 1.31567 2.14406 4.07633 -1.42738 -5.0297 7.15612  -9.69492e-005 19.5625 -0.0737234  1.59421 -16.3524 -12.1219  3.76697e-014 -1.29381e-011 -1.02101e-010  -0 0 -0   -6.99736 -20.6727 -7.50211  -0.000157293 71.1175 0.0175833  5.13711 -5.83066 -9.24783  -6.99662e-012 -1.7531e-011 -9.24301e-011  -0 0 -0   -1.96972 3.1662 -0.807539  -1.14788 3.16183 -0.494634  -0.984239 3.40648 -0.659168  -1.89488 6.38819 -1.0077  -1.27982 -6.46169 7.82939  2.36427 -21.1298 8.05371   -4.92449 3.03689 -10.416  -59.4059 14.2647 -5.988  1.4167e-011 1.62701e-011 -25.5189  -4.19844 5.80548 5.10194  4.79955 2.59909 7.5636  68.5377 21.9944 2.52565  5.35676e-011 -1.22018e-010 16.5515  5.78708 -7.78155 -0.719699 
